<?xml version="1.0" encoding="utf-8"?>
<!-- Generator: Adobe Illustrator 23.1.0, SVG Export Plug-In . SVG Version: 6.00 Build 0)  -->
<svg version="1.1" id="Layer_1" xmlns="http://www.w3.org/2000/svg" xmlns:xlink="http://www.w3.org/1999/xlink" x="0px" y="0px"
	 viewBox="0 0 1920 1080" style="enable-background:new 0 0 1920 1080;" xml:space="preserve">
<style type="text/css">
	.st0{fill:transparent;}
	.st1{fill:#231F20;}
	.st2{fill:none;stroke:#231F20;stroke-miterlimit:10;}
</style>
<g>
	<path class="st0" d="M1626.6,30.1C1303,65.7,1231.7,125.9,1224,173c-13.3,81,161.6,124.5,222.1,297.4
		c51.3,146.4-6.3,309.2-64.9,392.2c-148.5,210.1-553.8,263.1-964.9,57.1"/>
	<path class="st1" d="M1626.7,30.6c-23.6,2.8-47.1,5.7-70.6,9.1c-23.5,3.3-46.9,7.1-70.3,11.2c-23.3,4.1-46.6,8.9-69.6,14.4
		c-23.1,5.5-45.9,11.6-68.4,19.1c-2.8,0.9-5.6,1.9-8.4,2.9c-2.8,1-5.6,1.9-8.4,3l-8.3,3.2c-1.4,0.5-2.8,1-4.1,1.6l-4.1,1.7
		c-10.9,4.5-21.6,9.5-31.9,15.2c-10.3,5.7-20.1,12.1-29,19.6c-2.3,1.8-4.3,3.9-6.4,5.9c-1.1,1-2,2.1-3,3.1c-1,1.1-2,2.1-2.9,3.2
		l-2.7,3.3c-0.8,1.2-1.6,2.3-2.4,3.5c-0.8,1.1-1.5,2.4-2.2,3.6l-1.1,1.8c-0.4,0.6-0.6,1.3-0.9,1.9c-2.5,5.1-4.2,10.5-5.1,16
		c-0.8,5.5-0.7,11.1,0.3,16.6c2.1,11,7.8,21.1,14.8,30.3c7,9.1,15.3,17.5,23.9,25.5c8.6,8,17.6,15.7,26.6,23.3
		c18.1,15.3,36.4,30.5,53.9,46.9c17.5,16.3,34.1,33.7,49,52.5c15,18.8,28.3,39,39.3,60.5c5.5,10.8,10.4,21.8,14.7,33.1
		c2.2,5.6,4.1,11.4,6,17.1c1,2.8,1.8,5.8,2.6,8.7c0.8,2.9,1.7,5.8,2.5,8.7c6.1,23.4,10,47.4,11.6,71.5l0.5,9c0.1,1.5,0.2,3,0.2,4.5
		l0.1,4.5l0.2,9.1l-0.1,9.1l-0.1,4.5c0,1.5-0.1,3-0.2,4.5l-0.4,9c-0.2,3-0.5,6-0.7,9c-0.2,3-0.4,6-0.8,9l-1,9c-0.3,3-0.8,6-1.2,9
		c-0.8,6-1.8,11.9-2.8,17.9c-2.2,11.9-4.6,23.7-7.7,35.4c-1.4,5.9-3.1,11.7-4.7,17.5c-0.8,2.9-1.8,5.8-2.6,8.7
		c-0.9,2.9-1.8,5.8-2.7,8.6l-2.9,8.6l-3.1,8.5c-0.5,1.4-1,2.8-1.6,4.3l-1.6,4.2c-1.1,2.8-2.2,5.6-3.3,8.4
		c-4.6,11.2-9.6,22.2-14.9,33.1c-5.3,10.9-11.1,21.5-17.4,31.9c-12.4,20.9-27.1,40.6-43.6,58.6c-8.3,8.9-16.9,17.6-26,25.7l-3.4,3.1
		c-1.1,1-2.3,2-3.5,3l-7,5.9c-4.8,3.7-9.5,7.6-14.4,11.2c-9.7,7.3-19.8,14-30.1,20.5l-7.8,4.7c-2.6,1.6-5.3,3-7.9,4.6
		c-5.2,3.1-10.6,5.9-16,8.7c-21.5,11.2-43.8,20.7-66.5,29c-22.7,8.1-45.9,14.9-69.4,20.4c-47,10.9-94.9,16.9-142.9,19
		c-48,2-96.1-0.1-143.7-5.4c-47.7-5.3-94.9-14-141.4-25.5c-46.5-11.5-92.2-26.1-136.9-42.9c-44.8-16.8-88.5-36.4-131.1-58l8.3-16.6
		c21.2,10.4,42.6,20.3,64.2,29.6c21.6,9.4,43.5,18.2,65.6,26.3c44.2,16.3,89.2,30.1,134.9,41.3c45.7,11.1,92.1,19.4,138.7,24.6
		c46.7,5.2,93.7,7.1,140.5,5.2c46.8-1.9,93.5-7.7,139-18.2c22.7-5.3,45.2-11.8,67.2-19.5c21.9-7.9,43.4-17,64.1-27.6
		c41.3-21.2,79.4-48.7,111-82.4c15.8-16.9,29.7-35.3,41.7-55.1c6-9.9,11.8-20,17-30.4c5.2-10.4,10.2-20.9,14.7-31.7
		c9-21.5,16.8-43.5,22.8-66.1c3.1-11.2,5.7-22.6,8-34.1c1.1-5.7,2.2-11.5,3.1-17.2c0.4-2.9,1-5.8,1.3-8.6l1.1-8.7
		c0.4-2.9,0.7-5.8,1-8.7c0.3-2.9,0.6-5.8,0.8-8.7l0.6-8.7c0.1-1.5,0.2-2.9,0.3-4.4l0.2-4.4l0.3-8.7l0-8.7l0-4.4
		c0-1.5-0.1-2.9-0.1-4.4l-0.3-8.7c-1.1-23.3-4.4-46.4-9.8-69.1c-0.7-2.8-1.5-5.6-2.2-8.4c-0.8-2.8-1.4-5.6-2.4-8.4
		c-1.8-5.5-3.4-11.1-5.4-16.6c-3.9-11-8.5-21.7-13.6-32.2c-10.2-21-22.7-40.8-37-59.4c-14.3-18.6-30.3-35.9-47.3-52.2
		c-16.9-16.4-34.9-31.8-52.9-47.3c-9-7.8-17.9-15.6-26.6-23.9c-8.7-8.3-17.1-16.9-24.4-26.7c-3.7-4.9-7-10.1-9.7-15.6
		c-2.7-5.6-4.9-11.5-6-17.7c-1.1-6.2-1.1-12.6-0.1-18.8c1-6.2,3-12.2,5.9-17.7c0.4-0.7,0.7-1.4,1.1-2.1l1.2-2
		c0.8-1.3,1.6-2.7,2.5-3.9c0.9-1.3,1.8-2.5,2.7-3.8l2.9-3.6c0.9-1.2,2-2.3,3.1-3.4c1.1-1.1,2.1-2.3,3.2-3.3c2.3-2,4.4-4.2,6.8-6.1
		c9.3-7.7,19.6-14.2,30.1-19.8c10.6-5.7,21.5-10.6,32.6-15l4.2-1.7c1.4-0.6,2.8-1,4.2-1.6l8.4-3.1c2.8-1,5.6-1.9,8.5-2.9
		c2.8-0.9,5.6-1.9,8.5-2.8c22.7-7.2,45.8-13.1,69-18.2c23.2-5.2,46.5-9.6,70-13.5c23.4-3.9,46.9-7.5,70.4-10.5
		c23.5-3.2,47.1-5.8,70.7-8.4L1626.7,30.6z"/>
</g>
<line class="st2" x1="1390.8" y1="68.7" x2="1402" y2="47.1"/>
<line class="st2" x1="1392.2" y1="70.2" x2="1418.4" y2="75.5"/>
<g>
	<polygon class="st1" points="1240.1,140.1 1245,97.9 1246.6,98.1 1241.1,140.2 	"/>
</g>
<g>
	<polygon class="st1" points="1286.1,129.8 1240.7,140.6 1240.4,139.7 1285.8,128.4 	"/>
</g>
<g>
	<polygon class="st1" points="1409.2,396.9 1314.5,382.5 1314.9,380.1 1409.4,395.9 	"/>
</g>
<g>
	<polygon class="st1" points="1444.7,325.1 1409.8,396.6 1408.9,396.1 1442.6,324.1 	"/>
</g>
<g>
	<path class="st1" d="M1156.8,1015.9c3.5-9.6,8.1-18.7,12.3-27.9l13-27.6l25.9-55.2l26-55.1l26.1-55.1l6.2,3l-26.8,54.8l-26.9,54.7
		l-27,54.7l-13.5,27.3c-4.5,9.1-8.8,18.3-14.1,27L1156.8,1015.9z"/>
</g>
<g>
	<path class="st1" d="M1409.2,1053.1l-63-8.7l-63-8.9l-63-9l-31.5-4.5l-15.7-2.3l-7.9-1.1l-3.9-0.6l-2-0.3c-0.7-0.1-1.3-0.4-1.9-1.1
		l0.1-1c0.7-0.6,1.4-0.7,2.1-0.6l2,0.2l3.9,0.5l7.9,1l15.8,2l31.6,3.9l63.1,7.9l63.1,8l63.1,8.2L1409.2,1053.1z"/>
</g>
</svg>
